<?xml version="1.0" encoding="UTF-8" standalone="no"?>
<!-- Created with Inkscape (http://www.inkscape.org/) -->
<svg id="svg2" xmlns:rdf="http://www.w3.org/1999/02/22-rdf-syntax-ns#" xmlns="http://www.w3.org/2000/svg" height="103.86mm" width="108.72mm" version="1.1" xmlns:cc="http://creativecommons.org/ns#" xmlns:dc="http://purl.org/dc/elements/1.1/" viewBox="0 0 385.21089 367.99536">
 <metadata id="metadata7">
  <rdf:RDF>
   <cc:Work rdf:about="">
    <dc:format>image/svg+xml</dc:format>
    <dc:type rdf:resource="http://purl.org/dc/dcmitype/StillImage"/>
    <dc:title/>
   </cc:Work>
  </rdf:RDF>
 </metadata>
 <g id="layer1" transform="translate(-145.89 -489.5)">
  <path id="path3344" d="m350 705.93 31.551 119.01s28.969 84.561 48.969-53.297c10-50 24.459 0.29586 24.459 0.29586l14.582 56.796c2.2468 8.7513 6.2719 24.191 14.603 20.693 20.52-8.615 24.066-34.983 30.296-54.949 13.897-44.542 19.31-92.896 14.112-139.26-4.1043-36.616-16.389-83.71-35.215-104.78-22.012-24.631-28.993-35.675-71.915-51.42-32.788-12.027-124.66-7.8254-156.3 1.6647-58.887 17.662-97.387 74.894-112.29 130.25-15.427 57.313 2.7266 123.86 32.857 175 11.847 20.106 30.707 42.33 53.929 44.643 26.426 2.6324 22.143-21.429 22.143-21.429 0.47268-207.47 0.94537-160.29 1.418-240.43 0 0-4.4083-26.775 26.306-24.632 0 0 319.06-5.2959 80.49 119.7-26.429 10-20 22.143-20 22.143z" stroke="#000" stroke-width="1px" fill="none"/>
 </g>
</svg>
